<?xml version="1.0" encoding="UTF-8" standalone="no"?>
<!-- Created with Inkscape (http://www.inkscape.org/) -->

<svg
   xmlns:dc="http://purl.org/dc/elements/1.1/"
   xmlns:cc="http://creativecommons.org/ns#"
   xmlns:rdf="http://www.w3.org/1999/02/22-rdf-syntax-ns#"
   xmlns:svg="http://www.w3.org/2000/svg"
   xmlns="http://www.w3.org/2000/svg"
   xmlns:sodipodi="http://sodipodi.sourceforge.net/DTD/sodipodi-0.dtd"
   xmlns:inkscape="http://www.inkscape.org/namespaces/inkscape"
   width="300"
   height="100"
   viewBox="0 0 79.374999 26.458334"
   version="1.1"
   id="svg8"
   inkscape:version="0.92.3 (2405546, 2018-03-11)"
   sodipodi:docname="banner_small.svg">
  <defs
     id="defs2">
    <inkscape:path-effect
       effect="bspline"
       id="path-effect847"
       is_visible="true"
       weight="33.333333"
       steps="2"
       helper_size="0"
       apply_no_weight="true"
       apply_with_weight="true"
       only_selected="false" />
  </defs>
  <sodipodi:namedview
     id="base"
     pagecolor="#ffffff"
     bordercolor="#666666"
     borderopacity="1.0"
     inkscape:pageopacity="0.0"
     inkscape:pageshadow="2"
     inkscape:zoom="2.8284271"
     inkscape:cx="163.44013"
     inkscape:cy="3.1314061"
     inkscape:document-units="mm"
     inkscape:current-layer="layer1"
     showgrid="false"
     units="px"
     borderlayer="true"
     showborder="true"
     inkscape:pagecheckerboard="true"
     inkscape:window-width="1920"
     inkscape:window-height="1017"
     inkscape:window-x="-8"
     inkscape:window-y="-8"
     inkscape:window-maximized="1"
     inkscape:snap-intersection-paths="true" />
  <metadata
     id="metadata5">
    <rdf:RDF>
      <cc:Work
         rdf:about="">
        <dc:format>image/svg+xml</dc:format>
        <dc:type
           rdf:resource="http://purl.org/dc/dcmitype/StillImage" />
        <dc:title></dc:title>
      </cc:Work>
    </rdf:RDF>
  </metadata>
  <g
     inkscape:label="Ebene 1"
     inkscape:groupmode="layer"
     id="layer1"
     transform="translate(0,-270.54165)">
    <path
       style="fill:none;stroke:#000000;stroke-width:0.26458332px;stroke-linecap:butt;stroke-linejoin:miter;stroke-opacity:1"
       d="m 51.972136,289.3412 c 0.01759,-1.50106 7.36e-4,-3.00182 -0.0162,-4.50275 m -0.04134,0.1004 1.938805,-1.80988 0.04135,-1.25795 -1.942786,1.70637 0.0057,-0.92679 4.063243,-3.47266 -0.06558,6.70427 m -3.983151,3.45899 -0.0056,0.65987 2.745349,-2.30662 0.01154,1.42108 1.216424,-1.38082"
       id="path825"
       inkscape:connector-curvature="0"
       sodipodi:nodetypes="cccccccccccccc" />
    <ellipse
       style="opacity:1;fill:#6cb669;fill-opacity:1;fill-rule:nonzero;stroke:none;stroke-width:0.036;stroke-linecap:round;stroke-linejoin:round;stroke-miterlimit:4;stroke-dasharray:none;stroke-opacity:1"
       id="path815"
       cx="39.823158"
       cy="283.60309"
       rx="7.9512682"
       ry="7.9846768" />
    <path
       style="fill:none;stroke:#000000;stroke-width:0.26458332px;stroke-linecap:butt;stroke-linejoin:miter;stroke-opacity:1"
       d="m 29.591747,286.84374 -2.586845,2.74776 0.01913,-3.07007 h -1.370186 l -0.01384,2.99376 -2.584748,-2.52366 2.504092,-2.73796 -3.449033,-2.03162 v 0 l -0.188988,7.18155 -3.661644,-3.5199 6.425594,-7.03981 -1.724516,0.14172 -5.102678,5.40979 0.09449,-5.5532 -1.649137,0.98578 v 13.4303 h 1.737252 v -5.34539 l 5.813112,5.47902 h 1.804069 l -2.80633,-2.93996 v -2.18229 l 2.784579,2.68127 0.02175,2.44098 1.389756,0.0277 0.01007,-2.44303 3.770925,-4.14906 -2.111685,-2.52549 2.353142,-2.03522 -1.403165,0.0334 -2.235024,1.94967 2.301595,2.65301"
       id="path817"
       inkscape:connector-curvature="0"
       sodipodi:nodetypes="ccccccccccccccccccccccccccccccccc" />
    <path
       style="fill:none;stroke:#000000;stroke-width:0.26458332px;stroke-linecap:butt;stroke-linejoin:miter;stroke-opacity:1"
       d="m 50.296442,288.27256 0.133636,-13.49711 5.132408,4.17608 -1.957751,0.007 -1.717205,-1.33829 0.09331,10.04791"
       id="path823"
       inkscape:connector-curvature="0"
       sodipodi:nodetypes="cccccc" />
    <path
       style="fill:none;stroke:#000000;stroke-width:0.26458332px;stroke-linecap:butt;stroke-linejoin:miter;stroke-opacity:1"
       d="m 55.955328,285.88221 c 0.01914,2.09256 -0.15915,2.0086 1.228427,3.39915 l 0.05703,-2.65534 0.05646,-3.96306 1.600423,1.41714 0.09119,5.76285 1.2971,1.30824 -0.0093,-5.87793"
       id="path829"
       inkscape:connector-curvature="0"
       sodipodi:nodetypes="cccccccc" />
    <path
       style="fill:none;stroke:#000000;stroke-width:0.26458332px;stroke-linecap:butt;stroke-linejoin:miter;stroke-opacity:1"
       d="m 50.296442,288.27256 0.01245,0.6932 1.670703,-0.97696 0.0012,-0.32096"
       id="path831"
       inkscape:connector-curvature="0"
       sodipodi:nodetypes="cccc" />
    <path
       style="fill:none;stroke:#000000;stroke-width:0.26458332px;stroke-linecap:butt;stroke-linejoin:miter;stroke-opacity:1"
       d="m 60.278912,287.06502 -0.0023,-1.79176 2.684812,-2.55843 0.03984,-2.52027 -2.8435,2.70891 -4.136856,-3.72553 4.241306,-3.86472 4.18225,3.70319 0.02078,3.92193 -4.186334,4.12668 v 0"
       id="path843"
       inkscape:connector-curvature="0"
       sodipodi:nodetypes="ccccccccccc" />
    <path
       style="fill:none;stroke:#000000;stroke-width:0.26458332px;stroke-linecap:butt;stroke-linejoin:miter;stroke-opacity:1"
       d="m 61.832805,285.63434 2.116439,1.6838 -1.92935,1.87089 v 1.02899 l 1.870887,-1.59025 -0.04677,1.30962 -2.560776,2.25675 -0.997275,-1.04295"
       id="path853"
       inkscape:connector-curvature="0"
       sodipodi:nodetypes="cccccccc" />
  </g>
</svg>
